<svg xmlns="http://www.w3.org/2000/svg" width="171" height="75" fill="none">
  <path fill="#015778" d="M42.553 2.63a4701.615 4701.615 0 0 1-10.02 50.606.939.939 0 0 0 .452 1c6.167 3.567 12.545 6.362 19.132 8.384 6.615 2.032 13.979 3.646 22.09 4.842 16.402 2.413 33.136 2.642 50.2.687 6.133-.702 11.943-1.85 17.432-3.442 3.497-1.013 6.544-1.997 9.141-2.952a67.474 67.474 0 0 0 12.604-6.197c.541-.218.771-.622.691-1.212l3.502.221c-5.867 4.308-12.718 7.754-20.554 10.337-6.596 2.176-12.402 3.649-17.417 4.418a222.094 222.094 0 0 1-39.503 2.49c-3.372-.09-6.57-.227-9.597-.413A186.839 186.839 0 0 1 37.61 63.62c-8.133-2.474-15.457-5.982-21.97-10.524-5.249-3.663-9.806-8.323-13.67-13.98a.785.785 0 0 1-.15-.438l-.019-1.808a.25.25 0 0 1 .127-.22.26.26 0 0 1 .258 0l19.948 10.922a.5.5 0 0 0 .585-.074.513.513 0 0 0 .121-.171c6.523-14.93 13.062-29.9 19.617-44.913.16-.369.192-.297.096.216Z"/>
  <path fill="#000" d="M151.561 14.452c.144-.365.288-.367.432-.005 5.319 13.24 10.627 26.483 15.923 39.726.061.16.015.292-.139.394l-3.502-.22-2.526.009a.651.651 0 0 1-.362-.109.578.578 0 0 1-.224-.285l-3.315-9.308a.638.638 0 0 0-.6-.423h-9.41a.402.402 0 0 1-.331-.17.43.43 0 0 1-.063-.373l1.48-4.818a.416.416 0 0 1 .147-.209.393.393 0 0 1 .237-.08h5.947a.359.359 0 0 0 .336-.485 708.01 708.01 0 0 1-3.233-9.115c-.099-.279-.234-.475-.403-.587-.362-.237-.628-.096-.798.423a2205.417 2205.417 0 0 1-8.497 25.15.54.54 0 0 1-.499.36l-5.649-.029a.347.347 0 0 1-.291-.154.37.37 0 0 1-.059-.161.367.367 0 0 1 .023-.17l15.376-39.361ZM94.617 25.601l3.756.14a.473.473 0 0 1 .324.147c.085.09.132.209.132.333V53.65a.318.318 0 0 1-.317.317h-2.766c-.016 0-.28.024-.793.072-.423.039-.698-.081-.826-.36a.485.485 0 0 0-.625-.245c-3.468 1.432-6.282 1.22-8.444-.635-1.508-1.295-2.503-3.215-2.983-5.76-.413-2.173-.383-4.421.091-6.745.346-1.698 1.016-3.165 2.008-4.399 1.05-1.304 2.331-2.16 3.843-2.567 1.758-.474 3.6-.306 5.524.505a.418.418 0 0 0 .581-.38l.024-7.394a.46.46 0 0 1 .292-.428.447.447 0 0 1 .179-.029Zm-1.172 12.88c-1.71-1.282-3.218-1.564-4.525-.846-.996.548-1.681 1.634-2.056 3.26a12.934 12.934 0 0 0 .144 6.408c.317 1.147.78 1.945 1.388 2.394.871.638 1.922.657 3.151.058.852-.414 1.552-.94 2.1-1.582.332-.388.5-.836.5-1.346v-6.938c0-.586-.235-1.056-.702-1.408ZM55.81 37.77c1.06 2.082 1.45 4.488 1.168 7.216a.284.284 0 0 1-.088.173.264.264 0 0 1-.177.072l-12.412.077a.363.363 0 0 0-.352.27.351.351 0 0 0-.003.158c.346 1.8 1.097 3.085 2.253 3.85.903.6 1.87.781 2.901.544 1.089-.25 1.925-.946 2.508-2.087a.787.787 0 0 1 .278-.305.72.72 0 0 1 .384-.113l3.896-.024a.37.37 0 0 1 .297.145.38.38 0 0 1 .068.326c-.496 2.055-1.524 3.647-3.084 4.779-1.354.977-3.055 1.5-5.101 1.567-4.675.154-7.701-2.24-9.078-7.182-.657-2.35-.614-4.866.13-7.548.688-2.5 2.017-4.311 3.986-5.433 1.838-1.048 3.883-1.428 6.134-1.14 2.795.356 4.893 1.907 6.292 4.654Zm-5.567.278c-1.117-.907-2.357-1.06-3.718-.462-1.428.632-2.283 1.71-2.564 3.236a.24.24 0 0 0 .235.284l7.536-.03a.192.192 0 0 0 .152-.073.202.202 0 0 0 .04-.166 4.64 4.64 0 0 0-1.68-2.789ZM72.17 33.173c1.999.346 3.425 1.313 4.28 2.899.494.92.788 2.48.884 4.678.167 3.923.207 7.848.12 11.774.215 1.067-.134 1.567-1.047 1.5-.509-.038-.773-.058-.792-.058h-2.512a.452.452 0 0 1-.452-.452v-13.37c0-1.038-.364-1.804-1.09-2.298-.615-.413-1.357-.51-2.224-.288-1.281.333-2.295 1.086-3.04 2.26a.804.804 0 0 0-.13.442v13.389a.318.318 0 0 1-.318.317h-3.89a.475.475 0 0 1-.476-.476V34.01a.485.485 0 0 1 .138-.339.467.467 0 0 1 .333-.138l3.819.025c.052 0 .104.024.147.069a.354.354 0 0 1 .088.176l.086.447a.143.143 0 0 0 .038.073.17.17 0 0 0 .075.045c.03.01.062.012.095.007a.255.255 0 0 0 .095-.034c1.85-1.125 3.775-1.514 5.774-1.168ZM135.95 33.245a.57.57 0 0 1 .466.563v4.336a.2.2 0 0 1-.174.202.199.199 0 0 1-.095-.01c-2.332-.852-4.158-.355-5.481 1.491a.755.755 0 0 0-.139.438l-.144 13.427a.266.266 0 0 1-.072.177.235.235 0 0 1-.169.073l-3.881.02a.367.367 0 0 1-.271-.113.397.397 0 0 1-.113-.277l-.029-19.48a.56.56 0 0 1 .153-.381.503.503 0 0 1 .366-.153l3.713.043c.061 0 .121.027.169.075a.335.335 0 0 1 .09.185c.026.166.08.315.164.447a.178.178 0 0 0 .062.062.202.202 0 0 0 .086.028.245.245 0 0 0 .183-.057c1.377-1.118 3.082-1.484 5.116-1.096ZM104.915 33.553l3.535-.014a.586.586 0 0 1 .548.374.61.61 0 0 1 .043.231c-.051 4.49-.021 8.914.092 13.27.019.778.161 1.35.427 1.716.259.362.602.633 1.028.812.365.151.78.19 1.244.116 1.303-.205 2.434-.877 3.391-2.015a1.25 1.25 0 0 0 .298-.807V34.082a.54.54 0 0 1 .148-.374.495.495 0 0 1 .356-.15l3.853.048c.063 0 .124.028.17.077.045.05.07.117.07.187v19.77a.254.254 0 0 1-.069.174.272.272 0 0 1-.171.085 25.951 25.951 0 0 1-3.156.068c-.778.185-1.188-.047-1.23-.698a.137.137 0 0 0-.02-.065.13.13 0 0 0-.05-.047.133.133 0 0 0-.132.002c-2.033 1.227-4.226 1.564-6.58 1.01-1.326-.308-2.368-1.026-3.127-2.154-.935-1.398-1.396-3.151-1.384-5.26.023-3.846.034-8.013.034-12.5 0-.186.072-.365.2-.496a.671.671 0 0 1 .482-.206Z"/>
  <path fill="#015778" d="m53.918 58.082 2.44.399a.426.426 0 0 1 .269.158.379.379 0 0 1 .077.289l-.447 3.02a.51.51 0 0 1-.086.218.55.55 0 0 1-.177.163.647.647 0 0 1-.49.055l-4.694-1.36c-.375-.109-.415-.285-.12-.529l2.79-2.307a.507.507 0 0 1 .203-.1.585.585 0 0 1 .235-.006Z"/>
</svg>